<mxfile host="app.diagrams.net" modified="2021-03-18T07:42:14.856Z" agent="5.0 (Windows NT 10.0; Win64; x64) AppleWebKit/537.36 (KHTML, like Gecko) Chrome/89.0.4389.90 Safari/537.36" etag="XXjxNAknxQvQdMZjFRdX" version="14.4.9" type="github">
  <diagram id="i97dHsjJqKf_dcerSFUU" name="Page-1">
    <mxGraphModel dx="1182" dy="764" grid="1" gridSize="10" guides="1" tooltips="1" connect="1" arrows="1" fold="1" page="1" pageScale="1" pageWidth="827" pageHeight="1169" math="0" shadow="0">
      <root>
        <mxCell id="0" />
        <mxCell id="1" parent="0" />
        <mxCell id="sqX4xmPCyrEWmakgW1nY-1" value="&lt;font style=&quot;font-size: 18px&quot;&gt;교수&lt;/font&gt;" style="rounded=0;whiteSpace=wrap;html=1;" vertex="1" parent="1">
          <mxGeometry x="120" y="360" width="120" height="60" as="geometry" />
        </mxCell>
        <mxCell id="sqX4xmPCyrEWmakgW1nY-2" value="&lt;font style=&quot;font-size: 18px&quot;&gt;과목&lt;/font&gt;" style="rounded=0;whiteSpace=wrap;html=1;" vertex="1" parent="1">
          <mxGeometry x="600" y="360" width="120" height="60" as="geometry" />
        </mxCell>
        <mxCell id="sqX4xmPCyrEWmakgW1nY-4" value="" style="endArrow=none;html=1;exitX=1;exitY=0.5;exitDx=0;exitDy=0;entryX=0;entryY=0.5;entryDx=0;entryDy=0;" edge="1" parent="1" source="sqX4xmPCyrEWmakgW1nY-1" target="sqX4xmPCyrEWmakgW1nY-2">
          <mxGeometry width="50" height="50" relative="1" as="geometry">
            <mxPoint x="540" y="420" as="sourcePoint" />
            <mxPoint x="350" y="390" as="targetPoint" />
          </mxGeometry>
        </mxCell>
        <mxCell id="sqX4xmPCyrEWmakgW1nY-5" value="&lt;font style=&quot;font-size: 18px&quot;&gt;강의&lt;/font&gt;" style="rhombus;whiteSpace=wrap;html=1;" vertex="1" parent="1">
          <mxGeometry x="380" y="350" width="80" height="80" as="geometry" />
        </mxCell>
        <mxCell id="sqX4xmPCyrEWmakgW1nY-7" value="" style="endArrow=none;html=1;" edge="1" parent="1" target="sqX4xmPCyrEWmakgW1nY-15">
          <mxGeometry width="50" height="50" relative="1" as="geometry">
            <mxPoint x="220" y="360" as="sourcePoint" />
            <mxPoint x="270" y="310" as="targetPoint" />
            <Array as="points">
              <mxPoint x="240" y="340" />
              <mxPoint x="260" y="320" />
            </Array>
          </mxGeometry>
        </mxCell>
        <mxCell id="sqX4xmPCyrEWmakgW1nY-8" value="" style="endArrow=none;html=1;entryX=0.5;entryY=1;entryDx=0;entryDy=0;" edge="1" parent="1" target="sqX4xmPCyrEWmakgW1nY-19">
          <mxGeometry width="50" height="50" relative="1" as="geometry">
            <mxPoint x="190" y="360" as="sourcePoint" />
            <mxPoint x="190" y="280" as="targetPoint" />
          </mxGeometry>
        </mxCell>
        <mxCell id="sqX4xmPCyrEWmakgW1nY-9" value="" style="endArrow=none;html=1;exitX=0.692;exitY=1.05;exitDx=0;exitDy=0;exitPerimeter=0;" edge="1" parent="1" source="sqX4xmPCyrEWmakgW1nY-1" target="sqX4xmPCyrEWmakgW1nY-14">
          <mxGeometry width="50" height="50" relative="1" as="geometry">
            <mxPoint x="180" y="480" as="sourcePoint" />
            <mxPoint x="170" y="420" as="targetPoint" />
            <Array as="points" />
          </mxGeometry>
        </mxCell>
        <mxCell id="sqX4xmPCyrEWmakgW1nY-10" value="" style="endArrow=none;html=1;entryX=0.192;entryY=0.938;entryDx=0;entryDy=0;entryPerimeter=0;" edge="1" parent="1" target="sqX4xmPCyrEWmakgW1nY-17">
          <mxGeometry width="50" height="50" relative="1" as="geometry">
            <mxPoint x="700" y="360" as="sourcePoint" />
            <mxPoint x="750" y="310" as="targetPoint" />
          </mxGeometry>
        </mxCell>
        <mxCell id="sqX4xmPCyrEWmakgW1nY-11" value="" style="endArrow=none;html=1;entryX=0.408;entryY=1;entryDx=0;entryDy=0;entryPerimeter=0;" edge="1" parent="1" target="sqX4xmPCyrEWmakgW1nY-16">
          <mxGeometry width="50" height="50" relative="1" as="geometry">
            <mxPoint x="620" y="360" as="sourcePoint" />
            <mxPoint x="670" y="310" as="targetPoint" />
            <Array as="points" />
          </mxGeometry>
        </mxCell>
        <mxCell id="sqX4xmPCyrEWmakgW1nY-13" value="" style="endArrow=none;html=1;" edge="1" parent="1" target="sqX4xmPCyrEWmakgW1nY-18">
          <mxGeometry width="50" height="50" relative="1" as="geometry">
            <mxPoint x="130" y="360" as="sourcePoint" />
            <mxPoint x="110" y="300" as="targetPoint" />
          </mxGeometry>
        </mxCell>
        <mxCell id="sqX4xmPCyrEWmakgW1nY-14" value="학과" style="ellipse;whiteSpace=wrap;html=1;" vertex="1" parent="1">
          <mxGeometry x="150" y="470" width="90" height="60" as="geometry" />
        </mxCell>
        <mxCell id="sqX4xmPCyrEWmakgW1nY-15" value="나이" style="ellipse;whiteSpace=wrap;html=1;" vertex="1" parent="1">
          <mxGeometry x="240" y="270" width="90" height="60" as="geometry" />
        </mxCell>
        <mxCell id="sqX4xmPCyrEWmakgW1nY-16" value="sid" style="ellipse;whiteSpace=wrap;html=1;" vertex="1" parent="1">
          <mxGeometry x="550" y="260" width="100" height="60" as="geometry" />
        </mxCell>
        <mxCell id="sqX4xmPCyrEWmakgW1nY-17" value="학점" style="ellipse;whiteSpace=wrap;html=1;" vertex="1" parent="1">
          <mxGeometry x="730" y="260" width="90" height="60" as="geometry" />
        </mxCell>
        <mxCell id="sqX4xmPCyrEWmakgW1nY-18" value="&lt;font style=&quot;font-size: 18px&quot;&gt;pid&lt;/font&gt;" style="ellipse;whiteSpace=wrap;html=1;" vertex="1" parent="1">
          <mxGeometry x="20" y="250" width="90" height="60" as="geometry" />
        </mxCell>
        <mxCell id="sqX4xmPCyrEWmakgW1nY-19" value="이름" style="ellipse;whiteSpace=wrap;html=1;" vertex="1" parent="1">
          <mxGeometry x="140" y="220" width="80" height="60" as="geometry" />
        </mxCell>
      </root>
    </mxGraphModel>
  </diagram>
</mxfile>
